# Blender 3.4.1
# www.blender.org
mtllib ArrowButton.mtl
o Cube
v 1.000000 -0.048822 0.000000
v -1.000000 -0.048822 1.000000
v -1.000000 -0.048822 -1.000000
v 1.000000 0.048822 0.000001
v -1.000000 0.048822 1.000000
v -1.000000 0.048822 -1.000000
v -0.174374 -0.048822 -0.002782
v -1.000000 -0.048822 0.410031
v -0.174374 0.048822 -0.002781
v -1.000000 0.048822 -0.415595
v -1.000000 -0.048822 -0.415595
v -1.000000 0.048822 0.410032
vn -0.0000 -1.0000 -0.0000
vn -0.0000 1.0000 -0.0000
vn 0.4472 -0.0000 0.8944
vn -1.0000 -0.0000 -0.0000
vn 0.4472 -0.0000 -0.8944
vn -0.4472 -0.0000 -0.8944
vn -0.4472 -0.0000 0.8944
s 0
usemtl Material
f 1//1 2//1 8//1 7//1 11//1 3//1
f 4//2 6//2 10//2 9//2 12//2 5//2
f 1//3 4//3 5//3 2//3
f 2//4 5//4 12//4 8//4
f 4//5 1//5 3//5 6//5
f 9//6 7//6 8//6 12//6
f 11//4 10//4 6//4 3//4
f 7//7 9//7 10//7 11//7
