# Blender 3.4.1
# www.blender.org
mtllib diamond.mtl
o Cylinder
v 0.000000 -0.030000 -0.800000
v 0.000000 0.030000 -0.800000
v 1.250000 -0.030000 0.000000
v 1.250000 0.030000 0.000000
v 0.000000 -0.030000 0.800000
v 0.000000 0.030000 0.800000
v -1.250000 -0.030000 0.000000
v -1.250000 0.030000 0.000000
v 0.000000 0.137603 0.000000
vn 0.5391 -0.0000 -0.8423
vn 0.5391 -0.0000 0.8423
vn 0.0850 0.9875 0.1328
vn -0.5391 -0.0000 0.8423
vn -0.5391 -0.0000 -0.8423
vn -0.0000 -1.0000 -0.0000
vn -0.0850 0.9875 0.1328
vn -0.0850 0.9875 -0.1328
vn 0.0850 0.9875 -0.1328
vt 1.000000 0.500000
vt 0.000000 0.500000
vt 0.750000 0.490000
vt 1.000000 1.000000
vt 0.000000 1.000000
vt 0.250000 0.490000
vt 0.750000 0.500000
vt 0.990000 0.250000
vt 0.750000 1.000000
vt 0.490000 0.250000
vt 0.500000 0.500000
vt 0.750000 0.010000
vt 0.500000 1.000000
vt 0.250000 0.010000
vt 0.250000 0.500000
vt 0.510000 0.250000
vt 0.250000 1.000000
vt 0.010000 0.250000
vt 0.250000 0.250000
s 0
f 1/1/1 2/4/1 4/9/1 3/7/1
f 3/7/2 4/9/2 6/13/2 5/11/2
f 4/10/3 9/19/3 6/14/3
f 5/11/4 6/13/4 8/17/4 7/15/4
f 7/15/5 8/17/5 2/5/5 1/2/5
f 1/3/6 3/8/6 5/12/6 7/16/6
f 6/14/7 9/19/7 8/18/7
f 8/18/8 9/19/8 2/6/8
f 2/6/9 9/19/9 4/10/9
