# Blender 3.4.1
# www.blender.org
mtllib LCD.mtl
o Cube
v 1.000000 -0.496455 -1.000000
v 1.000000 -0.496455 1.000000
v -1.000000 -0.496455 1.000000
v -1.000000 -0.496455 -1.000000
v 1.000000 0.496455 -0.999999
v 0.999999 0.496455 1.000001
v -1.000000 0.496455 1.000000
v -1.000000 0.496455 -1.000000
v -0.000001 0.496455 2.024000
v 0.000000 -0.496455 2.024000
v 0.000000 0.496455 -2.001263
v 0.000000 -0.496455 -2.001263
vn -0.0000 -1.0000 -0.0000
vn -0.0000 1.0000 -0.0000
vn 1.0000 -0.0000 -0.0000
vn -0.7154 -0.0000 0.6987
vn -1.0000 -0.0000 -0.0000
vn 0.7154 -0.0000 0.6987
vn 0.7076 -0.0000 -0.7067
vn -0.7076 -0.0000 -0.7067
s 0
usemtl Material
f 1//1 2//1 10//1 3//1 4//1 12//1
f 5//2 11//2 8//2 7//2 9//2 6//2
f 1//3 5//3 6//3 2//3
f 3//4 10//4 9//4 7//4
f 3//5 7//5 8//5 4//5
f 2//6 6//6 9//6 10//6
f 1//7 12//7 11//7 5//7
f 4//8 8//8 11//8 12//8
