# Blender 3.4.1
# www.blender.org
mtllib numberbutton.mtl
o Cube
v 1.000000 -0.192181 -0.806097
v 0.806097 -0.192181 -1.000000
v 0.995138 -0.192181 -0.849244
v 0.980797 -0.192181 -0.890228
v 0.957696 -0.192181 -0.926993
v 0.926993 -0.192181 -0.957696
v 0.890228 -0.192181 -0.980797
v 0.849244 -0.192181 -0.995138
v 0.806097 -0.171199 -1.000000
v 1.000000 -0.171199 -0.806097
v 0.849244 -0.171199 -0.995138
v 0.890228 -0.171199 -0.980797
v 0.926993 -0.171199 -0.957696
v 0.957696 -0.171199 -0.926993
v 0.980797 -0.171199 -0.890228
v 0.995138 -0.171199 -0.849244
v 0.806097 -0.192181 1.000000
v 1.000000 -0.192181 0.806097
v 0.849244 -0.192181 0.995138
v 0.890228 -0.192181 0.980797
v 0.926993 -0.192181 0.957696
v 0.957696 -0.192181 0.926993
v 0.980797 -0.192181 0.890228
v 0.995138 -0.192181 0.849244
v 1.000000 -0.171199 0.806097
v 0.806097 -0.171199 1.000000
v 0.995138 -0.171199 0.849244
v 0.980797 -0.171199 0.890228
v 0.957696 -0.171199 0.926993
v 0.926993 -0.171199 0.957696
v 0.890228 -0.171199 0.980797
v 0.849244 -0.171199 0.995138
v -0.806097 -0.192181 -1.000000
v -1.000000 -0.192181 -0.806097
v -0.849244 -0.192181 -0.995138
v -0.890228 -0.192181 -0.980797
v -0.926993 -0.192181 -0.957696
v -0.957696 -0.192181 -0.926993
v -0.980797 -0.192181 -0.890228
v -0.995138 -0.192181 -0.849244
v -1.000000 -0.171199 -0.806097
v -0.806097 -0.171199 -1.000000
v -0.995138 -0.171199 -0.849244
v -0.980797 -0.171199 -0.890228
v -0.957696 -0.171199 -0.926993
v -0.926993 -0.171199 -0.957696
v -0.890228 -0.171199 -0.980797
v -0.849244 -0.171199 -0.995138
v -1.000000 -0.192181 0.806097
v -0.806097 -0.192181 1.000000
v -0.995138 -0.192181 0.849244
v -0.980797 -0.192181 0.890228
v -0.957696 -0.192181 0.926993
v -0.926993 -0.192181 0.957696
v -0.890228 -0.192181 0.980797
v -0.849244 -0.192181 0.995138
v -0.806097 -0.171199 1.000000
v -1.000000 -0.171199 0.806097
v -0.849244 -0.171199 0.995138
v -0.890228 -0.171199 0.980797
v -0.926993 -0.171199 0.957696
v -0.957696 -0.171199 0.926993
v -0.980797 -0.171199 0.890228
v -0.995138 -0.171199 0.849244
vn -0.0000 1.0000 -0.0000
vn -1.0000 -0.0000 -0.0000
vn -0.0000 -0.0000 1.0000
vn -0.0000 -1.0000 -0.0000
vn 1.0000 -0.0000 -0.0000
vn 0.9937 -0.0000 -0.1120
vn 0.9439 -0.0000 -0.3303
vn 0.8467 -0.0000 -0.5320
vn 0.7071 -0.0000 -0.7071
vn 0.5320 -0.0000 -0.8467
vn 0.3303 -0.0000 -0.9439
vn 0.1120 -0.0000 -0.9937
vn -0.1120 -0.0000 0.9937
vn -0.3303 -0.0000 0.9439
vn -0.5320 -0.0000 0.8467
vn -0.7071 -0.0000 0.7071
vn -0.8467 -0.0000 0.5320
vn -0.9439 -0.0000 0.3303
vn -0.9937 -0.0000 0.1120
vn 0.1120 -0.0000 0.9937
vn 0.3303 -0.0000 0.9439
vn 0.5320 -0.0000 0.8467
vn 0.7071 -0.0000 0.7071
vn 0.8467 -0.0000 0.5320
vn 0.9439 -0.0000 0.3303
vn 0.9937 -0.0000 0.1120
vn -0.1120 -0.0000 -0.9937
vn -0.3303 -0.0000 -0.9439
vn -0.5320 -0.0000 -0.8467
vn -0.7071 -0.0000 -0.7071
vn -0.8467 -0.0000 -0.5320
vn -0.9439 -0.0000 -0.3303
vn -0.9937 -0.0000 -0.1120
vn -0.0000 -0.0000 -1.0000
vt 0.625000 0.524238
vt 0.649238 0.500000
vt 0.625000 0.475762
vt 0.625608 0.518844
vt 0.625000 0.518844
vt 0.627400 0.513722
vt 0.625000 0.513721
vt 0.630288 0.509126
vt 0.625000 0.509126
vt 0.634126 0.505288
vt 0.625000 0.490874
vt 0.638721 0.502400
vt 0.625000 0.486279
vt 0.643844 0.500608
vt 0.625000 0.481156
vt 0.350762 0.500000
vt 0.375000 0.475762
vt 0.375000 0.524238
vt 0.356156 0.500608
vt 0.375000 0.481156
vt 0.361279 0.502400
vt 0.375000 0.486279
vt 0.365874 0.505288
vt 0.375000 0.490874
vt 0.369712 0.509126
vt 0.375000 0.509126
vt 0.372600 0.513721
vt 0.375000 0.513721
vt 0.374392 0.518844
vt 0.375000 0.518844
vt 0.649238 0.750000
vt 0.625000 0.774238
vt 0.625000 0.725762
vt 0.643844 0.749392
vt 0.625000 0.768844
vt 0.638721 0.747600
vt 0.625000 0.763721
vt 0.634126 0.744712
vt 0.625000 0.759126
vt 0.630288 0.740874
vt 0.625000 0.740874
vt 0.627400 0.736279
vt 0.625000 0.736278
vt 0.625608 0.731156
vt 0.625000 0.731156
vt 0.375000 0.725762
vt 0.350762 0.750000
vt 0.375000 0.774238
vt 0.374392 0.731156
vt 0.375000 0.731156
vt 0.372600 0.736279
vt 0.375000 0.736278
vt 0.369712 0.740874
vt 0.375000 0.740874
vt 0.365874 0.744712
vt 0.375000 0.759126
vt 0.361279 0.747600
vt 0.375000 0.763721
vt 0.356156 0.749392
vt 0.375000 0.768844
vt 0.850762 0.500000
vt 0.625000 0.274238
vt 0.875000 0.524238
vt 0.625000 0.225762
vt 0.856156 0.500608
vt 0.625000 0.268844
vt 0.861279 0.502400
vt 0.625000 0.263721
vt 0.865874 0.505288
vt 0.625000 0.259126
vt 0.869712 0.509126
vt 0.625000 0.240874
vt 0.872600 0.513721
vt 0.625000 0.236279
vt 0.874392 0.518844
vt 0.625000 0.231156
vt 0.125000 0.524238
vt 0.375000 0.225762
vt 0.149238 0.500000
vt 0.375000 0.274238
vt 0.125608 0.518844
vt 0.375000 0.231156
vt 0.127400 0.513722
vt 0.375000 0.236279
vt 0.130288 0.509126
vt 0.375000 0.240874
vt 0.134126 0.505288
vt 0.375000 0.259126
vt 0.138721 0.502400
vt 0.375000 0.263721
vt 0.143844 0.500608
vt 0.375000 0.268844
vt 0.875000 0.725762
vt 0.625000 0.024238
vt 0.850762 0.750000
vt 0.625000 0.975762
vt 0.874392 0.731156
vt 0.625000 0.018844
vt 0.872600 0.736279
vt 0.625000 0.013721
vt 0.869712 0.740874
vt 0.625000 0.009126
vt 0.865874 0.744712
vt 0.625000 1.000000
vt 0.625000 0.000000
vt 0.861279 0.747600
vt 0.625000 0.986279
vt 0.856156 0.749392
vt 0.625000 0.981156
vt 0.149238 0.750000
vt 0.375000 0.975762
vt 0.125000 0.725762
vt 0.375000 0.024238
vt 0.143844 0.749392
vt 0.375000 0.981156
vt 0.138721 0.747600
vt 0.375000 0.986278
vt 0.134126 0.744712
vt 0.375000 1.000000
vt 0.375000 0.000000
vt 0.130288 0.740874
vt 0.375000 0.009126
vt 0.127400 0.736279
vt 0.375000 0.013721
vt 0.125608 0.731156
vt 0.375000 0.018844
s 0
usemtl Material
f 41/77/1 58/112/1 64/125/1 63/123/1 62/121/1 61/118/1 60/116/1 59/114/1 57/110/1 26/47/1 32/59/1 31/57/1 30/55/1 29/53/1 28/51/1 27/49/1 25/46/1 10/18/1 16/29/1 15/27/1 14/25/1 13/23/1 12/21/1 11/19/1 9/16/1 42/79/1 48/91/1 47/89/1 46/87/1 45/85/1 44/83/1 43/81/1
f 58/113/2 41/78/2 34/64/2 49/94/2
f 26/48/3 57/111/3 50/96/3 17/32/3
f 1/1/4 18/33/4 24/44/4 23/42/4 22/40/4 21/38/4 20/36/4 19/34/4 17/31/4 50/95/4 56/108/4 55/106/4 54/103/4 53/101/4 52/99/4 51/97/4 49/93/4 34/63/4 40/75/4 39/73/4 38/71/4 37/69/4 36/67/4 35/65/4 33/61/4 2/2/4 8/14/4 7/12/4 6/10/4 5/8/4 4/6/4 3/4/4
f 10/18/5 25/46/5 18/33/5 1/1/5
f 1/1/6 3/5/6 16/30/6 10/18/6
f 3/5/7 4/7/7 15/28/7 16/30/7
f 4/7/8 5/9/8 14/26/8 15/28/8
f 5/9/9 6/11/9 13/24/9 14/26/9
f 6/11/10 7/13/10 12/22/10 13/24/10
f 7/13/11 8/15/11 11/20/11 12/22/11
f 8/15/12 2/3/12 9/17/12 11/20/12
f 57/111/13 59/115/13 56/109/13 50/96/13
f 59/115/14 60/117/14 55/107/14 56/109/14
f 60/117/15 61/119/15 54/104/15 55/107/15
f 61/120/16 62/122/16 53/102/16 54/105/16
f 62/122/17 63/124/17 52/100/17 53/102/17
f 63/124/18 64/126/18 51/98/18 52/100/18
f 64/126/19 58/113/19 49/94/19 51/98/19
f 17/32/20 19/35/20 32/60/20 26/48/20
f 19/35/21 20/37/21 31/58/21 32/60/21
f 20/37/22 21/39/22 30/56/22 31/58/22
f 21/39/23 22/41/23 29/54/23 30/56/23
f 22/41/24 23/43/24 28/52/24 29/54/24
f 23/43/25 24/45/25 27/50/25 28/52/25
f 24/45/26 18/33/26 25/46/26 27/50/26
f 33/62/27 35/66/27 48/92/27 42/80/27
f 35/66/28 36/68/28 47/90/28 48/92/28
f 36/68/29 37/70/29 46/88/29 47/90/29
f 37/70/30 38/72/30 45/86/30 46/88/30
f 38/72/31 39/74/31 44/84/31 45/86/31
f 39/74/32 40/76/32 43/82/32 44/84/32
f 40/76/33 34/64/33 41/78/33 43/82/33
f 42/80/34 9/17/34 2/3/34 33/62/34
