# Blender 3.4.1
# www.blender.org
mtllib untitled.mtl
o Cube
v -0.500000 0.013228 1.211324
v 0.500000 0.013228 0.633974
v -0.500000 -0.013228 1.211324
v 0.500000 -0.013228 0.633974
v 0.500000 0.013228 -0.633974
v -0.500000 0.013228 -1.211325
v -0.500000 -0.013228 -1.211325
v 0.500000 -0.013228 -0.633974
vn -0.0000 1.0000 -0.0000
vn -1.0000 -0.0000 -0.0000
vn -0.0000 -1.0000 -0.0000
vn 1.0000 -0.0000 -0.0000
vn 0.5000 -0.0000 0.8660
vn 0.5000 -0.0000 -0.8660
vt 0.875000 0.700708
vt 0.625000 0.049292
vt 0.888889 0.749933
vt 0.625000 0.664623
vt 0.666667 0.749933
vt 0.375000 0.049292
vt 0.125000 0.700708
vt 0.888889 0.748279
vt 0.375000 0.664623
vt 0.666667 0.748279
vt 0.625000 0.585377
vt 0.333333 0.749933
vt 0.875000 0.549292
vt 0.625000 0.200708
vt 0.111111 0.749933
vt 0.375000 0.200708
vt 0.125000 0.549292
vt 0.111111 0.748279
vt 0.375000 0.585377
vt 0.333333 0.748279
s 0
usemtl Material
f 6/13/1 1/1/1 2/4/1 5/11/1
f 3/6/2 1/2/2 6/14/2 7/16/2
f 8/19/3 4/9/3 3/7/3 7/17/3
f 5/11/4 2/4/4 4/9/4 8/19/4
usemtl 
f 2/5/5 1/3/5 3/8/5 4/10/5
f 5/12/6 8/20/6 7/18/6 6/15/6
